#N canvas 0 25 1680 962 12;
#N canvas 0 22 450 278 (subpatch) 0;
#X text 0 0 plugdatainfo <?xml version="1.0" encoding="UTF-8"?> <plugdatainfo/>
;
#X coords 0 1 100 -1 1 1 1;
#X restore 0 0 graph;
#X obj 102 7 loadbang;
#X obj 102 193 s bela_setDigital;
#X obj 78 249 r bela_digitalIn26;
#X obj 205 249 r bela_digitalIn25;
#X obj 336 249 r bela_digitalIn24;
#X obj 463 249 r bela_digitalIn23;
#X msg 102 152 in 26 \, in 25 \, in 24 \, in 23 \, out 17 \, out 18
\, out 21 \, out 13 \, out 14 \, out 11 \, out 12 \, out 15 \, out
16 \, out 19, f 82;
#X obj 61 579 s bela_digitalOut17;
#X obj 209 579 s bela_digitalOut18;
#X obj 351 579 s bela_digitalOut21;
#X obj 502 579 s bela_digitalOut13;
#X msg 146 55 \; pd dsp 1, f 10;
#X floatatom 299 342 5 0 0 0 - - - 0;
#X msg 78 279 1, f 5;
#X msg 205 279 2, f 5;
#X msg 336 279 3, f 5;
#X msg 463 279 4, f 5;
#X obj 61 392 select 1 2 3 4;
#X floatatom 61 613 5 0 0 0 - - - 0;
#X floatatom 209 613 5 0 0 0 - - - 0;
#X floatatom 351 613 5 0 0 0 - - - 0;
#X floatatom 502 613 5 0 0 0 - - - 0;
#X msg 61 456 1, f 5;
#X msg 112 457 0, f 5;
#X msg 178 456 1, f 5;
#X msg 229 457 0, f 5;
#X msg 293 455 1, f 5;
#X msg 344 456 0, f 5;
#X msg 416 455 1, f 5;
#X msg 467 456 0, f 5;
#X obj 62 907 osc~;
#X obj 62 872 +~ 20;
#X obj 62 838 *~ 400;
#X obj 62 973 dac~ 1 2;
#X obj 61 646 s m1;
#X obj 209 646 s m2;
#X obj 62 705 adc~ 3;
#X obj 62 772 *~ 2;
#X obj 164 908 osc~;
#X obj 164 873 +~ 20;
#X obj 164 839 *~ 400;
#X obj 164 974 dac~ 1 2;
#X obj 164 773 *~ 2;
#X obj 263 907 osc~;
#X obj 263 872 +~ 20;
#X obj 263 838 *~ 400;
#X obj 263 973 dac~ 1 2;
#X obj 263 772 *~ 2;
#X obj 369 908 osc~;
#X obj 369 873 +~ 20;
#X obj 369 839 *~ 400;
#X obj 369 974 dac~ 1 2;
#X obj 369 773 *~ 2;
#X obj 471 909 osc~;
#X obj 471 874 +~ 20;
#X obj 471 840 *~ 400;
#X obj 471 975 dac~ 1 2;
#X obj 471 774 *~ 2;
#X obj 570 908 osc~;
#X obj 570 873 +~ 20;
#X obj 570 839 *~ 400;
#X obj 570 974 dac~ 1 2;
#X obj 570 773 *~ 2;
#X obj 671 908 osc~;
#X obj 671 873 +~ 20;
#X obj 671 839 *~ 400;
#X obj 671 974 dac~ 1 2;
#X obj 671 773 *~ 2;
#X obj 770 907 osc~;
#X obj 770 872 +~ 20;
#X obj 770 838 *~ 400;
#X obj 770 973 dac~ 1 2;
#X obj 770 772 *~ 2;
#X obj 878 909 osc~;
#X obj 878 874 +~ 20;
#X obj 878 840 *~ 400;
#X obj 878 975 dac~ 1 2;
#X obj 878 774 *~ 2;
#X obj 977 908 osc~;
#X obj 977 873 +~ 20;
#X obj 977 839 *~ 400;
#X obj 977 974 dac~ 1 2;
#X obj 977 773 *~ 2;
#X obj 164 706 adc~ 4;
#X obj 263 705 adc~ 5;
#X obj 369 706 adc~ 6;
#X obj 471 707 adc~ 7;
#X obj 570 706 adc~ 8;
#X obj 671 706 adc~ 9;
#X obj 770 705 adc~ 10;
#X obj 878 707 adc~ 11;
#X obj 977 706 adc~ 12;
#X obj 164 940 *~ 0.1;
#X obj 263 939 *~ 0.1;
#X obj 369 940 *~ 0.1;
#X obj 471 941 *~ 0.1;
#X obj 570 940 *~ 0.1;
#X obj 671 940 *~ 0.1;
#X obj 770 939 *~ 0.1;
#X obj 878 941 *~ 0.1;
#X obj 977 940 *~ 0.1;
#X obj 62 939 *~ 0.1;
#X floatatom 821 546 5 0 0 0 - - - 0;
#X msg 707 450 0.1;
#X msg 751 450 0.11;
#X msg 805 450 0.12;
#X msg 849 450 0.13;
#X connect 1 0 7 0;
#X connect 1 0 12 0;
#X connect 1 0 14 0;
#X connect 3 0 14 0;
#X connect 4 0 15 0;
#X connect 5 0 16 0;
#X connect 6 0 17 0;
#X connect 7 0 2 0;
#X connect 13 0 18 0;
#X connect 14 0 13 0;
#X connect 15 0 13 0;
#X connect 16 0 13 0;
#X connect 17 0 13 0;
#X connect 18 0 23 0;
#X connect 18 0 24 0;
#X connect 18 0 104 0;
#X connect 18 1 25 0;
#X connect 18 1 26 0;
#X connect 18 1 105 0;
#X connect 18 2 27 0;
#X connect 18 2 28 0;
#X connect 18 2 106 0;
#X connect 18 3 29 0;
#X connect 18 3 30 0;
#X connect 18 3 107 0;
#X connect 19 0 35 0;
#X connect 20 0 36 0;
#X connect 23 0 8 0;
#X connect 23 0 19 0;
#X connect 24 0 9 0;
#X connect 24 0 20 0;
#X connect 24 0 21 0;
#X connect 24 0 10 0;
#X connect 24 0 22 0;
#X connect 24 0 11 0;
#X connect 25 0 9 0;
#X connect 25 0 20 0;
#X connect 26 0 19 0;
#X connect 26 0 8 0;
#X connect 26 0 21 0;
#X connect 26 0 10 0;
#X connect 26 0 22 0;
#X connect 26 0 11 0;
#X connect 27 0 10 0;
#X connect 27 0 21 0;
#X connect 28 0 8 0;
#X connect 28 0 19 0;
#X connect 28 0 20 0;
#X connect 28 0 9 0;
#X connect 28 0 22 0;
#X connect 28 0 11 0;
#X connect 29 0 11 0;
#X connect 29 0 22 0;
#X connect 30 0 19 0;
#X connect 30 0 8 0;
#X connect 30 0 20 0;
#X connect 30 0 9 0;
#X connect 30 0 21 0;
#X connect 30 0 10 0;
#X connect 31 0 102 0;
#X connect 32 0 31 0;
#X connect 33 0 32 0;
#X connect 37 0 38 0;
#X connect 38 0 33 0;
#X connect 39 0 93 0;
#X connect 40 0 39 0;
#X connect 41 0 40 0;
#X connect 43 0 41 0;
#X connect 44 0 94 0;
#X connect 45 0 44 0;
#X connect 46 0 45 0;
#X connect 48 0 46 0;
#X connect 49 0 95 0;
#X connect 50 0 49 0;
#X connect 51 0 50 0;
#X connect 53 0 51 0;
#X connect 54 0 96 0;
#X connect 55 0 54 0;
#X connect 56 0 55 0;
#X connect 58 0 56 0;
#X connect 59 0 97 0;
#X connect 60 0 59 0;
#X connect 61 0 60 0;
#X connect 63 0 61 0;
#X connect 64 0 98 0;
#X connect 65 0 64 0;
#X connect 66 0 65 0;
#X connect 68 0 66 0;
#X connect 69 0 99 0;
#X connect 70 0 69 0;
#X connect 71 0 70 0;
#X connect 73 0 71 0;
#X connect 74 0 100 0;
#X connect 75 0 74 0;
#X connect 76 0 75 0;
#X connect 78 0 76 0;
#X connect 79 0 101 0;
#X connect 80 0 79 0;
#X connect 81 0 80 0;
#X connect 83 0 81 0;
#X connect 84 0 43 0;
#X connect 85 0 48 0;
#X connect 86 0 53 0;
#X connect 87 0 58 0;
#X connect 88 0 63 0;
#X connect 89 0 68 0;
#X connect 90 0 73 0;
#X connect 91 0 78 0;
#X connect 92 0 83 0;
#X connect 93 0 42 0;
#X connect 93 0 42 1;
#X connect 94 0 47 0;
#X connect 94 0 47 1;
#X connect 95 0 52 0;
#X connect 95 0 52 1;
#X connect 96 0 57 0;
#X connect 96 0 57 1;
#X connect 97 0 62 0;
#X connect 97 0 62 1;
#X connect 98 0 67 0;
#X connect 98 0 67 1;
#X connect 99 0 72 0;
#X connect 99 0 72 1;
#X connect 100 0 77 0;
#X connect 100 0 77 1;
#X connect 101 0 82 0;
#X connect 101 0 82 1;
#X connect 102 0 34 0;
#X connect 102 0 34 1;
#X connect 103 0 101 1;
#X connect 103 0 102 1;
#X connect 103 0 100 1;
#X connect 103 0 99 1;
#X connect 103 0 98 1;
#X connect 103 0 97 1;
#X connect 103 0 96 1;
#X connect 103 0 95 1;
#X connect 103 0 94 1;
#X connect 103 0 93 1;
#X connect 104 0 103 0;
#X connect 105 0 103 0;
#X connect 106 0 103 0;
#X connect 107 0 103 0;
