#N canvas 827 239 527 327 12;
#N canvas 0 22 450 278 (subpatch) 0;
#X text 0 0 plugdatainfo <?xml version="1.0" encoding="UTF-8"?> <plugdatainfo/>;
#X coords 0 1 100 -1 1 1 1;
#X restore 0 0 graph;
#X msg 39 59 \; pd dsp 1, f 10;
#X obj 39 18 loadbang;
#X obj 58 304 adc~ 3;
#X obj 124 304 adc~ 4;
#X obj 193 304 adc~ 5;
#X obj 58 407 dac~ 27 28 29;
#X connect 2 0 1 0;
#X connect 3 0 6 0;
#X connect 4 0 6 1;
#X connect 5 0 6 2;
