#N canvas 827 239 527 327 12;
#N canvas 0 22 450 278 (subpatch) 0;
#X text 0 0 plugdatainfo <?xml version="1.0" encoding="UTF-8"?> <plugdatainfo/>;
#X coords 0 1 100 -1 1 1 1;
#X restore 0 0 graph;
#X obj 142 68 loadbang;
#X msg 142 97 \; pd dsp 1, f 10;
#X obj 262 242 adc~ 1;
#X obj 262 329 dac~ 1 2 27;
#X connect 1 0 2 0;
#X connect 3 0 4 0;
#X connect 3 0 4 1;
#X connect 3 0 4 2;
