#N canvas 270 296 448 656 12;
#X obj 7 10 inlet;
#X obj 11 461 outlet~;
#X floatatom 477 506 5 0 0 0 - - - 0;
#X obj 477 535 delread~ simpleDelay 1000;
#X obj 83 281 *~;
#N canvas 794 342 450 300 envelope~ 0;
#X obj 50 137 cos~;
#X obj 50 187 +~ 0.5;
#X obj 50 162 *~ -0.5;
#X obj 50 217 outlet~;
#X text 93 133 // 'rounds it';
#X text 109 159 // scales it to 0-1;
#X obj 50 90 line~;
#X msg 50 66 0 \, 1 \$1;
#X obj 50 43 inlet;
#X connect 0 0 2 0;
#X connect 1 0 3 0;
#X connect 2 0 1 0;
#X connect 6 0 0 0;
#X connect 7 0 6 0;
#X connect 8 0 7 0;
#X restore 101 257 pd envelope~;
#X obj 83 204 delread~ simpleDelay 100;
#X obj 87 461 outlet~;
#X obj 80 357 *~;
#X obj 113 358 *~;
#X obj 191 385 expr 1-$f1;
#X obj 203 360 f;
#X obj 73 74 unpack f f f;
#X connect 0 0 12 0;
#X connect 2 0 3 0;
#X connect 4 0 8 0;
#X connect 4 0 9 0;
#X connect 5 0 4 1;
#X connect 6 0 4 0;
#X connect 8 0 1 0;
#X connect 9 0 7 0;
#X connect 10 0 9 1;
#X connect 11 0 10 0;
#X connect 11 0 8 1;
#X connect 12 0 5 0;
#X connect 12 1 11 0;
#X connect 12 2 6 0;
