#N canvas 827 239 527 327 12;
#N canvas 0 22 450 278 (subpatch) 0;
#X text 0 0 plugdatainfo <?xml version="1.0" encoding="UTF-8"?> <plugdatainfo/>;
#X coords 0 1 100 -1 1 1 1;
#X restore 0 0 graph;
#X obj 47 271 adc~ 3;
#X obj 133 62 loadbang;
#X msg 133 100 read -resize sample.wav table-1, f 30;
#X obj 452 67 table table-1;
#X obj 133 159 soundfiler;
#X obj 133 188 s sampleLenght1;
#X obj 47 421 tabplay~ table-1;
#X msg 47 389 0, f 5;
#X obj 352 503 dac~ 1 2;
#X obj 352 455 *~ 0.5;
#X obj 406 455 *~ 0.5;
#X msg 395 187 \; pd dsp 1, f 10;
#X obj 47 352 threshold~ 0.2 50 0.05 50;
#X connect 1 0 13 0;
#X connect 2 0 3 0;
#X connect 2 0 12 0;
#X connect 3 0 5 0;
#X connect 5 0 6 0;
#X connect 7 0 10 0;
#X connect 7 0 11 0;
#X connect 8 0 7 0;
#X connect 10 0 9 0;
#X connect 11 0 9 1;
#X connect 13 0 8 0;
