#N canvas 459 25 1218 950 12;
#N canvas 171 25 1275 964 window_1 1;
#X obj 1 1 cnv 15 1200 930 empty empty empty 20 12 0 14 -1 -66577 0
;
#X obj 27 21 obj_granu_sample_v1;
#X obj 607 21 obj_granu_sample_v1;
#X obj 27 471 obj_granu_sample_v1;
#X obj 607 471 obj_granu_sample_v1;
#X obj 580 936 dac~ 1 2;
#X connect 1 0 5 0;
#X connect 1 1 5 1;
#X connect 2 0 5 0;
#X connect 2 1 5 1;
#X connect 3 0 5 0;
#X connect 3 1 5 1;
#X connect 4 0 5 0;
#X connect 4 1 5 1;
#X coords 0 -1 1 1 1202 931 2 0 0;
#X restore -13 -5 pd window_1;
