#N canvas 827 239 527 327 12;
#N canvas 0 22 450 278 (subpatch) 0;
#X text 0 0 plugdatainfo <?xml version="1.0" encoding="UTF-8"?> <plugdatainfo/>;
#X coords 0 1 100 -1 1 1 1;
#X restore 0 0 graph;
#X obj 173 29 obj_granu_sample_v1;
#X obj 173 538 clip~ -1 1;
#X obj 255 538 clip~ -1 1;
#X obj 173 590 dac~ 1 2 3 4;
#X connect 1 0 2 0;
#X connect 1 1 3 0;
#X connect 2 0 4 0;
#X connect 2 0 4 2;
#X connect 3 0 4 1;
#X connect 3 0 4 3;
