#N canvas 827 239 527 327 12;
#N canvas 0 22 450 278 (subpatch) 0;
#X text 0 0 plugdatainfo <?xml version="1.0" encoding="UTF-8"?> <plugdatainfo/>;
#X coords 0 1 100 -1 1 1 1;
#X restore 0 0 graph;
#X obj 101 644 list prepend send;
#X obj 101 685 list trim;
#X msg 320 644 connect localhost 57120;
#X obj 101 726 netsend -u -b;
#X text 862 34 https://hvc.berlin/Puredata/using-osc-in-pure-data/, f 41;
#X msg 225 644 disconnect, f 12;
#X obj 101 603 r \$0-paSend_1;
#X obj 115 92 oscformat osc val1;
#X obj 115 118 s \$0-paSend_1;
#X obj 115 67 hsl 128 17 0 1 0 0 empty empty empty -2 -8 0 10 #191919 #00f9de #ffffff 0 1;
#X floatatom 74 67 5 0 0 0 val\ 1 - - 12;
#X obj 115 209 s \$0-paSend_1;
#X obj 115 158 hsl 128 17 0 1 0 0 empty empty empty -2 -8 0 10 #191919 #00f9de #ffffff 0 1;
#X floatatom 74 158 5 0 0 0 val\ 2 - - 12;
#X obj 115 299 s \$0-paSend_1;
#X obj 115 248 hsl 128 17 0 1 0 0 empty empty empty -2 -8 0 10 #191919 #00f9de #ffffff 0 1;
#X floatatom 74 248 5 0 0 0 val\ 3 - - 12;
#X obj 115 390 s \$0-paSend_1;
#X obj 115 339 hsl 128 17 0 1 0 0 empty empty empty -2 -8 0 10 #191919 #00f9de #ffffff 0 1;
#X floatatom 74 339 5 0 0 0 val\ 4 - - 12;
#X obj 115 481 s \$0-paSend_1;
#X obj 115 430 hsl 128 17 0 1 0 0 empty empty empty -2 -8 0 10 #191919 #00f9de #ffffff 0 1;
#X floatatom 74 430 5 0 0 0 val\ 5 - - 12;
#X obj 336 118 s \$0-paSend_1;
#X obj 336 67 hsl 128 17 0 1 0 0 empty empty empty -2 -8 0 10 #191919 #00f9de #ffffff 0 1;
#X floatatom 295 67 5 0 0 0 val\ 6 - - 12;
#X obj 336 209 s \$0-paSend_1;
#X obj 336 158 hsl 128 17 0 1 0 0 empty empty empty -2 -8 0 10 #191919 #00f9de #ffffff 0 1;
#X floatatom 295 158 5 0 0 0 val\ 7 - - 12;
#X obj 336 299 s \$0-paSend_1;
#X obj 336 248 hsl 128 17 0 1 0 0 empty empty empty -2 -8 0 10 #191919 #00f9de #ffffff 0 1;
#X floatatom 295 248 5 0 0 0 val\ 8 - - 12;
#X obj 336 390 s \$0-paSend_1;
#X obj 336 339 hsl 128 17 0 1 0 0 empty empty empty -2 -8 0 10 #191919 #00f9de #ffffff 0 1;
#X floatatom 295 339 5 0 0 0 val\ 9 - - 12;
#X obj 336 481 s \$0-paSend_1;
#X obj 336 430 hsl 128 17 0 1 0 0 empty empty empty -2 -8 0 10 #191919 #00f9de #ffffff 0 1;
#X floatatom 295 430 5 0 0 0 val\ 10 - - 12;
#X obj 115 273 oscformat osc val3;
#X obj 115 183 oscformat osc val2;
#X obj 115 364 oscformat osc val4;
#X obj 115 455 oscformat osc val5;
#X obj 336 92 oscformat osc val6;
#X obj 336 183 oscformat osc val7;
#X obj 336 273 oscformat osc val8;
#X obj 336 364 oscformat osc val9;
#X obj 336 455 oscformat osc val10;
#X obj 115 21 tgl 21 0 \$0-connect_i_o empty osc\ connection 25 10 0 10 #191919 #00f9de #00ff4c 0 1;
#X obj 225 603 select 0 1;
#X obj 320 603 r \$0-connect_i_o;
#X obj 513 118 s \$0-paSend_1;
#X obj 516 64 tgl 20 0 empty empty bt\ 1 27 10 0 10 #191919 #00f9de #01f9ff 0 1;
#X obj 513 92 oscformat osc bt1;
#X obj 513 205 s \$0-paSend_1;
#X obj 516 151 tgl 20 0 empty empty bt\ 2 27 10 0 10 #191919 #00f9de #01f9ff 0 1;
#X obj 516 292 s \$0-paSend_1;
#X obj 519 238 tgl 20 0 empty empty bt\ 3 27 10 0 10 #191919 #00f9de #01f9ff 0 1;
#X obj 516 379 s \$0-paSend_1;
#X obj 519 325 tgl 20 0 empty empty bt\ 4 27 10 0 10 #191919 #00f9de #01f9ff 0 1;
#X obj 513 179 oscformat osc bt2;
#X obj 516 266 oscformat osc bt3;
#X obj 516 353 oscformat osc bt4;
#X connect 1 0 2 0;
#X connect 2 0 4 0;
#X connect 3 0 4 0;
#X connect 6 0 4 0;
#X connect 7 0 1 0;
#X connect 8 0 9 0;
#X connect 10 0 11 0;
#X connect 11 0 8 0;
#X connect 13 0 14 0;
#X connect 14 0 40 0;
#X connect 16 0 17 0;
#X connect 17 0 39 0;
#X connect 19 0 20 0;
#X connect 20 0 41 0;
#X connect 22 0 23 0;
#X connect 23 0 42 0;
#X connect 25 0 26 0;
#X connect 26 0 43 0;
#X connect 28 0 29 0;
#X connect 29 0 44 0;
#X connect 31 0 32 0;
#X connect 32 0 45 0;
#X connect 34 0 35 0;
#X connect 35 0 46 0;
#X connect 37 0 38 0;
#X connect 38 0 47 0;
#X connect 39 0 15 0;
#X connect 40 0 12 0;
#X connect 41 0 18 0;
#X connect 42 0 21 0;
#X connect 43 0 24 0;
#X connect 44 0 27 0;
#X connect 45 0 30 0;
#X connect 46 0 33 0;
#X connect 47 0 36 0;
#X connect 49 0 6 0;
#X connect 49 1 3 0;
#X connect 50 0 49 0;
#X connect 52 0 53 0;
#X connect 53 0 51 0;
#X connect 55 0 60 0;
#X connect 57 0 61 0;
#X connect 59 0 62 0;
#X connect 60 0 54 0;
#X connect 61 0 56 0;
#X connect 62 0 58 0;
