#N canvas 827 239 527 327 12;
#N canvas 0 22 450 278 (subpatch) 0;
#X text 0 0 plugdatainfo <?xml version="1.0" encoding="UTF-8"?> <plugdatainfo/>;
#X coords 0 1 100 -1 1 1 1;
#X restore 0 0 graph;
#X obj 90 28 loadbang;
#X msg 90 57 \; pd dsp 1, f 10;
#X obj 50 212 s bela_setDigital;
#X msg 50 159 in 11, f 6;
#X obj 209 185 r bela_digitalIn11;
#X obj 209 214 print b;
#X connect 1 0 2 0;
#X connect 1 0 4 0;
#X connect 4 0 3 0;
#X connect 5 0 6 0;
