#N canvas 1453 25 1383 865 12;
#X obj 266 140 soundfiler;
#X obj 331 92 \$0;
#X obj 345 140 table \$0-arrayGrao;
#X floatatom 266 164 15 0 0 0 - - - 0;
#X obj 266 187 s \$0-graoDur;
#X obj 139 61 samplerate~;
#X obj 46 61 r \$0-graoDur;
#X obj 46 85 expr $f2 / $f1;
#X floatatom 46 109 5 0 0 0 - - - 0;
#X obj 56 151 t b f;
#X obj 46 175 * 1;
#X obj 46 215 phasor~;
#X obj 46 282 *~;
#X obj 104 259 r \$0-graoDur;
#X obj 46 306 snapshot~;
#X obj 118 306 metro 125;
#X obj 118 286 tgl 15 0 empty \$0-tg001 empty 17 7 0 10 #202020 #00fc04 #000000 0 1;
#X floatatom 46 456 13 0 0 0 - - - 0;
#X obj 139 37 loadbang;
#X obj 204 39 bng 15 250 50 0 empty empty empty 17 7 0 10 #fcfcfc #000000 #000000;
#X obj 93 522 \$0;
#X obj 93 498 loadbang;
#X obj 123 524 bng 15 250 50 0 empty empty empty 17 7 0 10 #fcfcfc #000000 #000000;
#X obj 63 498 b;
#X obj 46 584 pack f f f f f;
#X msg 46 608 next \$1 \$2 \$3 \$4 \$5;
#X obj 56 132 nbx 5 14 0.01 5 0 0 empty \$0-speed001 speed 60 7 0 10 #000000 #00fc04 #fc0400 0 256;
#X obj 138 286 nbx 5 14 0 1000 0 0 empty \$0-grainRate001 grain\ rate 60 7 0 10 #000000 #00fc04 #fc0400 0 256;
#X obj 69 479 nbx 5 14 0 1000 0 0 empty \$0-grainDur001 grain\ dur 60 7 0 10 #000000 #00fc04 #fc0400 0 256;
#X obj 117 546 nbx 5 14 0.01 5 0 0 empty \$0-pitch001 pitch 60 7 0 10 #000000 #00fc04 #fc0400 0 256;
#X obj 141 565 nbx 5 14 0 1 0 0 empty \$0-pan001 pan 60 7 0 10 #000000 #00fc04 #fc0400 0 256;
#X obj 777 18 loadbang;
#X msg 790 88 0.5;
#X msg 811 158 100;
#X obj 46 901 outlet~;
#X obj 183 901 outlet~;
#X obj 381 301 cnv 15 568 437 empty empty empty 20 12 0 14 #0c4044 #404040 0;
#X obj 414 604 hsl 128 14 0 200 0 0 empty \$0-rRate001 empty -2 -8 0 10 #000000 #00fc04 #000000 0 1;
#X obj 549 604 nbx 5 14 0 200 0 0 \$0-grainRate001 empty rate 66 7 0 12 #000000 #00fc04 #fc0400 0 256;
#X obj 707 604 hsl 128 14 0 1000 0 0 empty \$0-rDur001 empty -2 -8 0 10 #000000 #00fc04 #000000 0 1;
#X obj 842 604 nbx 5 14 0 1000 0 0 \$0-grainDur001 empty dur 66 7 0 12 #000000 #00fc04 #fc0400 0 256;
#X obj 707 498 hsl 128 14 0.01 5 0 0 empty \$0-rPitch001 empty -2 -8 0 10 #000000 #00fc04 #000000 0 1;
#X obj 842 498 nbx 5 14 0.01 5 0 0 \$0-pitch001 empty pitch 66 7 0 12 #000000 #00fc04 #fc0400 0 256;
#X obj 414 498 hsl 128 14 0.01 5 0 0 empty \$0-rSpeed003 empty -2 -8 0 10 #000000 #00fc04 #000000 0 1;
#X obj 550 498 nbx 5 14 0.01 5 0 0 \$0-speed001 empty speed 66 7 0 12 #000000 #00fc04 #fc0400 0 256;
#X obj 707 402 hsl 128 14 0 1 0 0 empty \$0-rPan001 empty -2 -8 0 10 #000000 #00fc04 #000000 0 1;
#X obj 842 402 nbx 5 14 0 1 0 0 \$0-pan001 empty pan 66 7 0 12 #000000 #00fc04 #fc0400 0 256;
#X obj 414 436 hsl 128 14 0.01 5 0 0 empty empty empty -2 -8 0 10 #000000 #00fc04 #000000 0 1;
#X obj 550 436 nbx 5 14 0.01 5 0 0 \$0-speedMin001 empty min 60 7 0 10 #000000 #00fc04 #fc0400 0 256;
#X obj 46 817 *~;
#X obj 143 806 *~;
#X obj 706 680 hsl 128 14 0 30 0 0 empty empty empty -2 -8 0 10 #000000 #00fc04 #000000 0 1;
#X obj 841 680 nbx 5 14 0 30 0 0 \$0-trim001 empty trim 66 7 0 12 #000000 #00fc04 #fc0400 0 256;
#X obj 223 699 nbx 5 14 0 30 0 0 empty \$0-trim001 trim 60 7 0 10 #000000 #00fc04 #fc0400 0 256;
#X obj 190 306 s \$0-rateGeral001;
#X obj 414 455 hsl 128 14 0.01 5 0 0 empty empty empty -2 -8 0 10 #000000 #00fc04 #000000 0 1;
#X obj 550 455 nbx 5 14 0.01 5 0 0 \$0-speedMax001 empty max 60 7 0 10 #000000 #00fc04 #fc0400 0 256;
#X obj 391 455 tgl 15 0 \$0-speedSync001 empty rnd -1 -6 0 10 #202020 #00fc04 #fc0400 0 1;
#X obj 414 542 hsl 128 14 0 200 0 0 empty empty empty -2 -8 0 10 #000000 #00fc04 #000000 0 1;
#X obj 550 542 nbx 5 14 0 200 0 0 \$0-rateMin001 empty min 60 7 0 10 #000000 #00fc04 #fc0400 0 256;
#X obj 414 561 hsl 128 14 0 200 0 0 empty 0 empty -2 -8 0 10 #000000 #00fc04 #000000 0 1;
#X obj 550 561 nbx 5 14 0 200 0 0 \$0-rateMax001 empty max 60 7 0 10 #000000 #00fc04 #fc0400 0 256;
#X obj 811 206 s \$0-rSpeed001;
#X obj 414 474 hsl 128 14 0 5000 0 0 empty empty empty -2 -8 0 10 #000000 #00fc04 #000000 0 1;
#X obj 550 474 nbx 5 14 0 5000 0 0 \$0-speedsuave001 empty suave 60 7 0 10 #000000 #00fc04 #fc0400 0 256;
#X obj 414 580 hsl 128 14 0 5000 0 0 empty empty empty -2 -8 0 10 #000000 #00fc04 #000000 0 1;
#X obj 550 580 nbx 5 14 0 5000 0 0 \$0-rateSuave001 empty suave 60 7 0 10 #000000 #00fc04 #fc0400 0 256;
#X obj 391 560 tgl 15 0 \$0-rateSync001 empty rnd -1 -6 0 10 #202020 #00fc04 #fc0400 0 1;
#X obj 707 542 hsl 128 14 0 1000 0 0 empty empty empty -2 -8 0 10 #000000 #00fc04 #000000 0 1;
#X obj 843 542 nbx 5 14 0 1000 0 0 \$0-durMin001 empty min 60 7 0 10 #000000 #00fc04 #fc0400 0 256;
#X obj 707 561 hsl 128 14 0 1000 0 0 empty empty empty -2 -8 0 10 #000000 #00fc04 #000000 0 1;
#X obj 843 561 nbx 5 14 0 1000 0 0 \$0-durMax001 empty max 60 7 0 10 #000000 #00fc04 #fc0400 0 256;
#X obj 707 580 hsl 128 14 0 5000 0 0 empty empty empty -2 -8 0 10 #000000 #00fc04 #000000 0 1;
#X obj 843 580 nbx 5 14 0 5000 0 0 \$0-durSuave001 empty suave 60 7 0 10 #000000 #00fc04 #fc0400 0 256;
#X obj 684 560 tgl 15 0 \$0-durSync001 empty rnd -1 -6 0 10 #202020 #00fc04 #fc0400 0 1;
#X obj 798 230 s \$0-rDur001;
#X obj 707 436 hsl 128 14 0.01 5 0 0 empty empty empty -2 -8 0 10 #000000 #00fc04 #000000 0 1;
#X obj 843 436 nbx 5 14 0.01 5 0 0 \$0-pitchMin001 empty min 60 7 0 10 #000000 #00fc04 #fc0400 0 256;
#X obj 707 455 hsl 128 14 0.01 5 0 0 empty empty empty -2 -8 0 10 #000000 #00fc04 #000000 0 1;
#X obj 843 455 nbx 5 14 0.01 5 0 0 \$0-pitchMax001 empty max 60 7 0 10 #000000 #00fc04 #fc0400 0 256;
#X obj 684 455 tgl 15 0 \$0-pitchSync001 empty rnd -1 -6 0 10 #202020 #00fc04 #fc0400 0 1;
#X obj 707 474 hsl 128 14 0 5000 0 0 empty empty empty -2 -8 0 10 #000000 #00fc04 #000000 0 1;
#X obj 843 474 nbx 5 14 0 5000 0 0 \$0-pitchSuave001 empty suave 60 7 0 10 #000000 #00fc04 #fc0400 0 256;
#X obj 657 150 s \$0-rPitch001;
#X obj 707 340 hsl 128 14 0 1 0 0 empty empty empty -2 -8 0 10 #000000 #00fc04 #000000 0 1;
#X obj 843 340 nbx 5 14 0 1 0 0 \$0-panMin001 empty min 60 7 0 10 #000000 #00fc04 #fc0400 0 256;
#X obj 707 359 hsl 128 14 0 1 0 0 empty empty empty -2 -8 0 10 #000000 #00fc04 #000000 0 1;
#X obj 843 359 nbx 5 14 0 1 0 0 \$0-panMax001 empty max 60 7 0 10 #000000 #00fc04 #fc0400 0 256;
#X obj 684 359 tgl 15 0 \$0-panSync001 empty rnd -1 -6 0 10 #202020 #00fc04 #fc0400 0 1;
#X obj 707 378 hsl 128 14 0 5000 0 0 empty empty empty -2 -8 0 10 #000000 #00fc04 #000000 0 1;
#X obj 843 378 nbx 5 14 0 5000 0 0 \$0-panSuave001 empty suave 60 7 0 10 #000000 #00fc04 #fc0400 0 256;
#X obj 836 136 s \$0-rPan001;
#N canvas 91 550 1552 349 randomators01 1;
#X floatatom 62 80 5 0 0 0 - - - 0;
#X floatatom 113 104 5 0 0 0 - - - 0;
#X floatatom 10 234 5 0 0 0 - - - 0;
#X obj 10 105 bng 15 250 50 0 empty empty empty 17 7 0 10 #fcfcfc #000000 #000000;
#X msg 75 162 \$1 \$2;
#X obj 10 186 expr random($f1 \, $f2);
#X obj 10 162 pack f f;
#X obj 10 138 f, f 2;
#X obj 63 138 f, f 2;
#X floatatom 20 56 5 0 0 0 - - - 0;
#X obj 11 79 spigot;
#X obj 10 282 line;
#X obj 10 257 pack f f;
#X floatatom 63 234 5 0 0 0 - - - 0;
#X msg 75 258 \$1 \$2;
#X floatatom 52 283 5 0 0 0 - - - 0;
#X obj 113 80 r \$0-speedMin001;
#X obj 11 8 r \$0-rateGeral001;
#X obj 62 56 r \$0-speedMax001;
#X obj 20 32 r \$0-speedSync001;
#X obj 62 103 * 1000;
#X obj 155 104 * 1000;
#X floatatom 290 81 5 0 0 0 - - - 0;
#X floatatom 341 105 5 0 0 0 - - - 0;
#X floatatom 238 235 5 0 0 0 - - - 0;
#X obj 238 106 bng 15 250 50 0 empty empty empty 17 7 0 10 #fcfcfc #000000 #000000;
#X msg 303 163 \$1 \$2;
#X obj 238 187 expr random($f1 \, $f2);
#X obj 238 163 pack f f;
#X obj 238 139 f, f 2;
#X obj 291 139 f, f 2;
#X floatatom 248 57 5 0 0 0 - - - 0;
#X obj 239 80 spigot;
#X obj 238 283 line;
#X obj 238 258 pack f f;
#X floatatom 291 235 5 0 0 0 - - - 0;
#X msg 303 259 \$1 \$2;
#X floatatom 280 284 5 0 0 0 - - - 0;
#X obj 239 9 r \$0-rateGeral001;
#X obj 290 104 * 1000;
#X obj 383 105 * 1000;
#X obj 238 211 / 1000;
#X obj 248 33 r \$0-rateSync001;
#X obj 290 57 r \$0-rateMax001;
#X obj 341 81 r \$0-rateMin001;
#X obj 291 211 r \$0-rateSuave001;
#X obj 322 284 s \$0-rRate001;
#X obj 63 210 r \$0-speedsuave001;
#X obj 10 209 / 1000;
#X floatatom 511 82 5 0 0 0 - - - 0;
#X floatatom 562 106 5 0 0 0 - - - 0;
#X floatatom 459 236 5 0 0 0 - - - 0;
#X obj 459 107 bng 15 250 50 0 empty empty empty 17 7 0 10 #fcfcfc #000000 #000000;
#X msg 524 164 \$1 \$2;
#X obj 459 188 expr random($f1 \, $f2);
#X obj 459 164 pack f f;
#X obj 459 140 f, f 2;
#X obj 512 140 f, f 2;
#X floatatom 469 58 5 0 0 0 - - - 0;
#X obj 460 81 spigot;
#X obj 459 284 line;
#X obj 459 259 pack f f;
#X floatatom 512 236 5 0 0 0 - - - 0;
#X msg 524 260 \$1 \$2;
#X floatatom 501 285 5 0 0 0 - - - 0;
#X obj 511 105 * 1000;
#X obj 604 106 * 1000;
#X obj 459 212 / 1000;
#X obj 469 34 r \$0-durSync001;
#X obj 511 58 r \$0-durMax001;
#X obj 562 82 r \$0-durMin001;
#X obj 460 10 r \$0-rateGeral001;
#X obj 512 212 r \$0-durSuave001;
#X obj 543 285 s \$0-rDur001;
#X floatatom 725 83 5 0 0 0 - - - 0;
#X floatatom 776 107 5 0 0 0 - - - 0;
#X floatatom 673 237 5 0 0 0 - - - 0;
#X obj 673 108 bng 15 250 50 0 empty empty empty 17 7 0 10 #fcfcfc #000000 #000000;
#X msg 738 165 \$1 \$2;
#X obj 673 189 expr random($f1 \, $f2);
#X obj 673 165 pack f f;
#X obj 673 141 f, f 2;
#X obj 726 141 f, f 2;
#X floatatom 683 59 5 0 0 0 - - - 0;
#X obj 674 82 spigot;
#X obj 673 285 line;
#X obj 673 260 pack f f;
#X floatatom 726 237 5 0 0 0 - - - 0;
#X msg 738 261 \$1 \$2;
#X floatatom 715 286 5 0 0 0 - - - 0;
#X obj 725 106 * 1000;
#X obj 818 107 * 1000;
#X obj 673 213 / 1000;
#X obj 674 11 r \$0-rateGeral001;
#X obj 683 35 r \$0-pitchSync001;
#X obj 725 59 r \$0-pitchMax001;
#X obj 776 83 r \$0-pitchMin001;
#X obj 726 213 r \$0-pitchSuave001;
#X obj 757 286 s \$0-rPitch001;
#X floatatom 953 84 5 0 0 0 - - - 0;
#X floatatom 1004 108 5 0 0 0 - - - 0;
#X floatatom 901 238 5 0 0 0 - - - 0;
#X obj 901 109 bng 15 250 50 0 empty empty empty 17 7 0 10 #fcfcfc #000000 #000000;
#X msg 966 166 \$1 \$2;
#X obj 901 190 expr random($f1 \, $f2);
#X obj 901 166 pack f f;
#X obj 901 142 f, f 2;
#X obj 954 142 f, f 2;
#X floatatom 911 60 5 0 0 0 - - - 0;
#X obj 902 83 spigot;
#X obj 901 286 line;
#X obj 901 261 pack f f;
#X floatatom 954 238 5 0 0 0 - - - 0;
#X msg 966 262 \$1 \$2;
#X floatatom 943 287 5 0 0 0 - - - 0;
#X obj 953 107 * 1000;
#X obj 1046 108 * 1000;
#X obj 901 214 / 1000;
#X obj 902 12 r \$0-rateGeral001;
#X obj 911 36 r \$0-panSync001;
#X obj 953 60 r \$0-panMax001;
#X obj 1004 84 r \$0-panMin001;
#X obj 954 214 r \$0-panSuave001;
#X obj 985 287 s \$0-rPan001;
#X floatatom 1183 84 5 0 0 0 - - - 0;
#X floatatom 1234 108 5 0 0 0 - - - 0;
#X floatatom 1131 238 5 0 0 0 - - - 0;
#X obj 1131 109 bng 15 250 50 0 empty empty empty 17 7 0 10 #fcfcfc #000000 #000000;
#X msg 1196 166 \$1 \$2;
#X obj 1131 190 expr random($f1 \, $f2);
#X obj 1131 166 pack f f;
#X obj 1131 142 f, f 2;
#X obj 1184 142 f, f 2;
#X floatatom 1141 60 5 0 0 0 - - - 0;
#X obj 1132 83 spigot;
#X obj 1131 286 line;
#X obj 1131 261 pack f f;
#X floatatom 1184 238 5 0 0 0 - - - 0;
#X msg 1196 262 \$1 \$2;
#X floatatom 1173 287 5 0 0 0 - - - 0;
#X obj 1183 107 * 1000;
#X obj 1276 108 * 1000;
#X obj 1131 214 / 1000;
#X obj 1132 12 r \$0-rateGeral001;
#X obj 1141 36 r \$0-playRnd001;
#X obj 1183 60 r \$0-posMax001;
#X obj 1234 84 r \$0-posMin001;
#X obj 1217 315 s \$0-posG1;
#X obj 1312 143 select 1;
#X msg 1312 167 0, f 1;
#X obj 1329 192 s \$0-contCtrl;
#X obj 1312 214 s \$0-mauCtrl;
#X obj 1303 280 spigot;
#X obj 1303 314 s \$0-valorManu0;
#X obj 1384 257 r \$0-graoDur;
#X obj 1366 281 *;
#X obj 1217 288 spigot;
#X obj 1184 214 r \$0-posSuave002;
#X obj 94 282 s \$0-rSpeed003;
#X connect 0 0 20 0;
#X connect 1 0 21 0;
#X connect 2 0 12 0;
#X connect 3 0 8 0;
#X connect 3 0 7 0;
#X connect 4 0 5 0;
#X connect 5 0 48 0;
#X connect 6 0 4 0;
#X connect 7 0 6 0;
#X connect 8 0 6 1;
#X connect 9 0 10 1;
#X connect 10 0 3 0;
#X connect 11 0 15 0;
#X connect 12 0 14 0;
#X connect 13 0 12 1;
#X connect 14 0 11 0;
#X connect 15 0 158 0;
#X connect 16 0 1 0;
#X connect 17 0 10 0;
#X connect 18 0 0 0;
#X connect 19 0 9 0;
#X connect 20 0 7 1;
#X connect 21 0 8 1;
#X connect 22 0 39 0;
#X connect 23 0 40 0;
#X connect 24 0 34 0;
#X connect 25 0 30 0;
#X connect 25 0 29 0;
#X connect 26 0 27 0;
#X connect 27 0 41 0;
#X connect 28 0 26 0;
#X connect 29 0 28 0;
#X connect 30 0 28 1;
#X connect 31 0 32 1;
#X connect 32 0 25 0;
#X connect 33 0 37 0;
#X connect 34 0 36 0;
#X connect 35 0 34 1;
#X connect 36 0 33 0;
#X connect 37 0 46 0;
#X connect 38 0 32 0;
#X connect 39 0 29 1;
#X connect 40 0 30 1;
#X connect 41 0 24 0;
#X connect 42 0 31 0;
#X connect 43 0 22 0;
#X connect 44 0 23 0;
#X connect 45 0 35 0;
#X connect 47 0 13 0;
#X connect 48 0 2 0;
#X connect 49 0 65 0;
#X connect 50 0 66 0;
#X connect 51 0 61 0;
#X connect 52 0 57 0;
#X connect 52 0 56 0;
#X connect 53 0 54 0;
#X connect 54 0 67 0;
#X connect 55 0 53 0;
#X connect 56 0 55 0;
#X connect 57 0 55 1;
#X connect 58 0 59 1;
#X connect 59 0 52 0;
#X connect 60 0 64 0;
#X connect 61 0 63 0;
#X connect 62 0 61 1;
#X connect 63 0 60 0;
#X connect 64 0 73 0;
#X connect 65 0 56 1;
#X connect 66 0 57 1;
#X connect 67 0 51 0;
#X connect 68 0 58 0;
#X connect 69 0 49 0;
#X connect 70 0 50 0;
#X connect 71 0 59 0;
#X connect 72 0 62 0;
#X connect 74 0 90 0;
#X connect 75 0 91 0;
#X connect 76 0 86 0;
#X connect 77 0 82 0;
#X connect 77 0 81 0;
#X connect 78 0 79 0;
#X connect 79 0 92 0;
#X connect 80 0 78 0;
#X connect 81 0 80 0;
#X connect 82 0 80 1;
#X connect 83 0 84 1;
#X connect 84 0 77 0;
#X connect 85 0 89 0;
#X connect 86 0 88 0;
#X connect 87 0 86 1;
#X connect 88 0 85 0;
#X connect 89 0 98 0;
#X connect 90 0 81 1;
#X connect 91 0 82 1;
#X connect 92 0 76 0;
#X connect 93 0 84 0;
#X connect 94 0 83 0;
#X connect 95 0 74 0;
#X connect 96 0 75 0;
#X connect 97 0 87 0;
#X connect 99 0 115 0;
#X connect 100 0 116 0;
#X connect 101 0 111 0;
#X connect 102 0 107 0;
#X connect 102 0 106 0;
#X connect 103 0 104 0;
#X connect 104 0 117 0;
#X connect 105 0 103 0;
#X connect 106 0 105 0;
#X connect 107 0 105 1;
#X connect 108 0 109 1;
#X connect 109 0 102 0;
#X connect 110 0 114 0;
#X connect 111 0 113 0;
#X connect 112 0 111 1;
#X connect 113 0 110 0;
#X connect 114 0 123 0;
#X connect 115 0 106 1;
#X connect 116 0 107 1;
#X connect 117 0 101 0;
#X connect 118 0 109 0;
#X connect 119 0 108 0;
#X connect 120 0 99 0;
#X connect 121 0 100 0;
#X connect 122 0 112 0;
#X connect 124 0 140 0;
#X connect 125 0 141 0;
#X connect 126 0 136 0;
#X connect 127 0 132 0;
#X connect 127 0 131 0;
#X connect 128 0 129 0;
#X connect 129 0 142 0;
#X connect 130 0 128 0;
#X connect 131 0 130 0;
#X connect 132 0 130 1;
#X connect 133 0 134 1;
#X connect 133 0 148 0;
#X connect 133 0 152 1;
#X connect 133 0 156 1;
#X connect 134 0 127 0;
#X connect 135 0 139 0;
#X connect 136 0 138 0;
#X connect 137 0 136 1;
#X connect 138 0 135 0;
#X connect 139 0 155 0;
#X connect 139 0 156 0;
#X connect 140 0 131 1;
#X connect 141 0 132 1;
#X connect 142 0 126 0;
#X connect 143 0 134 0;
#X connect 144 0 133 0;
#X connect 145 0 124 0;
#X connect 146 0 125 0;
#X connect 148 0 149 0;
#X connect 149 0 150 0;
#X connect 149 0 151 0;
#X connect 152 0 153 0;
#X connect 154 0 155 1;
#X connect 155 0 152 0;
#X connect 156 0 147 0;
#X connect 157 0 137 0;
#X restore 45 945 pd randomators01;
#X obj 414 402 hsl 128 14 0 1 0 0 empty \$0-posG1 empty -2 -8 0 10 #000000 #00fc04 #000000 0 1;
#X obj 550 402 nbx 5 14 0 1 0 0 \$0-posGe001 empty pos 66 7 0 12 #000000 #00fc04 #fc0400 0 256;
#X obj 112 768 line;
#X msg 223 726 \$1 50;
#X obj 230 385 snapshot~;
#X floatatom 230 409 13 0 0 0 - - - 0;
#X obj 230 361 metro 5;
#X obj 763 701 tgl 15 0 \$0-tg001 empty toogle\ geral 17 7 0 10 #000000 #00fc04 #fc0400 0 1;
#X obj 288 362 tgl 15 0 empty \$0-tg001 empty 17 7 0 10 #202020 #00fc04 #000000 0 1;
#X obj 411 314 tgl 15 0 \$0-playAuto001 \$0-contCtrl continuum 17 7 0 10 #202020 #00fc04 #fc0400 0 1;
#X obj 46 359 spigot;
#X obj 85 340 tgl 15 0 empty \$0-playAuto001 empty 17 7 0 10 #202020 #00fc04 #000000 0 1;
#X obj 230 451 spigot;
#X obj 269 432 tgl 15 0 empty \$0-playAuto001 empty 17 7 0 10 #202020 #00fc04 #000000 0 1;
#X obj 414 378 hsl 128 14 0 5000 0 0 empty \$0-posSuave001 empty -2 -8 0 10 #000000 #00fc04 #000000 0 1;
#X obj 550 378 nbx 5 14 0 5000 0 0 \$0-posSuave002 empty suave 60 7 0 10 #000000 #00fc04 #fc0400 0 256;
#X obj 493 314 tgl 15 0 \$0-playManu001 \$0-mauCtrl manual 17 7 0 10 #202020 #00fc04 #fc0400 0 1;
#X obj 97 408 s \$0-mauCtrl;
#X obj 97 360 select 1;
#X msg 97 384 0, f 1;
#X obj 76 432 r \$0-valorManu0;
#X obj 230 475 s \$0-posG1;
#N canvas 26 134 269 345 manualPlay001 1;
#X obj 46 126 r \$0-graoDur;
#X obj 9 126 line;
#X msg 9 102 \$1 \$2;
#X obj 9 78 pack f f;
#X floatatom 9 174 12 0 0 0 - - - 0;
#X obj 9 150 *;
#X obj 61 55 tgl 15 0 empty \$0-playManu001 empty 17 7 0 10 #202020 #00fc04 #000000 0 1;
#X obj 9 54 spigot;
#X obj 9 7 r \$0-posGe001;
#X floatatom 9 31 5 0 0 0 - - - 0;
#X obj 81 31 r \$0_suaveManu001;
#X floatatom 81 55 5 0 0 0 - - - 0;
#X obj 154 55 select 1;
#X msg 154 79 0, f 1;
#X obj 154 103 s \$0-contCtrl;
#X obj 9 221 s \$0-valorManu0;
#X obj 9 197 spigot;
#X obj 147 126 s \$0-rndCtrl;
#X connect 0 0 5 1;
#X connect 1 0 5 0;
#X connect 2 0 1 0;
#X connect 3 0 2 0;
#X connect 4 0 16 0;
#X connect 5 0 4 0;
#X connect 6 0 7 1;
#X connect 6 0 12 0;
#X connect 6 0 16 1;
#X connect 7 0 3 0;
#X connect 8 0 9 0;
#X connect 9 0 7 0;
#X connect 10 0 11 0;
#X connect 11 0 3 1;
#X connect 12 0 13 0;
#X connect 13 0 14 0;
#X connect 13 0 17 0;
#X connect 16 0 15 0;
#X restore 45 974 pd manualPlay001;
#X obj 414 340 hsl 128 14 0 1 0 0 empty empty empty -2 -8 0 10 #000000 #00fc04 #000000 0 1;
#X obj 550 340 nbx 5 14 0 1 0 0 \$0-posMin001 empty min 60 7 0 10 #000000 #00fc04 #fc0400 0 256;
#X obj 414 359 hsl 128 14 0 1 0 0 empty empty empty -2 -8 0 10 #000000 #00fc04 #000000 0 1;
#X obj 550 359 nbx 5 14 0 1 0 0 \$0-posMax001 empty max 60 7 0 10 #000000 #00fc04 #fc0400 0 256;
#X obj 557 314 tgl 15 0 \$0-playRnd001 \$0-rndCtrl random 17 7 0 10 #202020 #00fc04 #fc0400 0 1;
#X obj 118 384 s \$0-rndCtrl;
#X obj 703 315 nbx 3 14 1 135 0 0 \$0-sampleNum001 empty sample 40 7 0 10 #000000 #00fc04 #fc0400 0 256;
#X msg 266 116 read -resize audioPaGrao/au\$1.wav \$2-arrayGrao;
#X obj 266 46 nbx 3 14 1 135 0 0 empty \$0-sampleNum001 sample 40 7 0 10 #000000 #00fc04 #fc0400 0 256;
#X obj 266 68 t f b;
#X obj 266 92 pack f f;
#X obj 834 182 s \$0-rRate001;
#X msg 704 88 1, f 2;
#X obj 692 126 s \$0-rSpeed003;
#N canvas 0 22 450 278 (subpatch) 0;
#X text 0 0 plugdatainfo <?xml version="1.0" encoding="UTF-8"?> <plugdatainfo/>;
#X coords 0 1 100 -1 1 1 1;
#X restore 0 0 graph;
#X obj 46 862 clip~ -0.7 0.7;
#X obj 168 862 clip~ -0.7 0.7;
#X obj 1518 244 adc~ 3;
#X obj 1224 752 loadbang;
#X obj 1224 938 s bela_setDigital;
#X obj 1585 994 r bela_digitalIn23;
#X msg 1224 897 in 26 \, in 25 \, in 24 \, in 23 \, out 17 \, out 18 \, out 21 \, out 13 \, out 14 \, out 11 \, out 12 \, out 15 \, out 16 \, out 19, f 82;
#X msg 1268 800 \; pd dsp 1, f 10;
#X msg 1200 1134 1, f 5;
#X msg 1249 1134 0, f 5;
#X msg 1328 1134 1, f 5;
#X msg 1377 1134 0, f 5;
#X obj 1208 1214 tgl 15 0 empty empty continuum 17 7 0 10 #202020 #00fc04 #fc0400 0 1;
#X obj 1290 1214 tgl 15 0 empty empty manual 17 7 0 10 #202020 #00fc04 #fc0400 0 1;
#X obj 1354 1214 tgl 15 0 empty empty random 17 7 0 10 #202020 #00fc04 #fc0400 0 1;
#X msg 1458 1134 1, f 5;
#X msg 1507 1134 0, f 5;
#X obj 1201 994 r bela_digitalIn26;
#X obj 1328 994 r bela_digitalIn25;
#X obj 1459 994 r bela_digitalIn24;
#X obj 1200 1034 select 1;
#X obj 1200 1063 change;
#X obj 1328 1034 select 1;
#X obj 1328 1063 change;
#X obj 1458 1034 select 1;
#X obj 1458 1063 change;
#X obj 1585 1034 select 1;
#X obj 1585 1063 change;
#X msg 1591 1134 0, f 5;
#X obj 1203 1348 s bela_digitalOut17;
#X obj 1235 1315 s bela_digitalOut18;
#X obj 1354 1282 s bela_digitalOut21;
#X obj 1518 312 *~ 3;
#X obj 1518 341 snapshot~;
#X floatatom 1518 370 5 0 0 0 - - - 12;
#X obj 1606 283 loadbang;
#X msg 1606 312 1, f 5;
#X obj 1606 341 metro 5;
#X obj 1758 312 *~ 3;
#X obj 1758 341 snapshot~;
#X obj 1758 244 adc~ 4;
#X obj 1518 500 *~ 3;
#X obj 1518 529 snapshot~;
#X obj 1518 421 adc~ 7;
#X obj 1518 593 + 0.01;
#X obj 1518 558 * 4.99;
#X obj 1762 503 *~ 3;
#X obj 1762 532 snapshot~;
#X obj 1762 596 + 0.01;
#X obj 1762 561 * 4.99;
#X obj 1518 738 *~ 3;
#X obj 1518 767 snapshot~;
#X obj 1665 738 *~ 3;
#X obj 1665 767 snapshot~;
#X obj 1518 669 adc~ 5;
#X obj 1665 669 adc~ 6;
#X obj 1762 424 adc~ 8;
#X text 226 632 100, f 5;
#X obj 1758 277 clip~ -0.33 0.33;
#X obj 1465 283 clip~ -0.33 0.33;
#X obj 1762 462 clip~ -0.33 0.33;
#X obj 1518 456 clip~ -0.33 0.33;
#X obj 1518 706 clip~ -0.33 0.33;
#X obj 1665 709 clip~ -0.33 0.33;
#X obj 1518 625 clip 0.01 5;
#X obj 1764 638 clip 0.01 5;
#X obj 1328 429 spigot;
#X obj 1208 319 spigot;
#X obj 1328 163 *~ 3;
#X obj 1328 192 snapshot~;
#X floatatom 1328 221 5 0 0 0 - - - 12;
#X obj 1275 134 clip~ -0.33 0.33;
#X obj 1328 95 adc~ 9;
#X obj 1473 146 *~ 3;
#X obj 1473 175 snapshot~;
#X obj 1420 117 clip~ -0.33 0.33;
#X obj 1473 204 * 5000;
#X obj 1473 78 adc~ 10;
#X obj 1518 801 * 199;
#X obj 1665 801 * 999;
#X obj 1518 831 + 1;
#X obj 1665 831 + 1;
#X obj 1758 370 * 20;
#N canvas 0 22 450 300 midiIn_0001 1;
#N canvas 0 22 450 278 (subpatch) 0;
#X text 0 0 plugdatainfo <?xml version="1.0" encoding="UTF-8"?> <plugdatainfo/>;
#X coords 0 1 100 -1 1 1 1;
#X restore 0 0 graph;
#X floatatom 68 106 4 0 127 0 - - - 0;
#X floatatom 112 107 4 0 127 0 - - - 0;
#X obj 68 371 moses 100;
#X obj 118 271 == 0;
#X obj 68 335 spigot;
#X floatatom 118 300 5 0 0 0 - - - 12;
#X obj 68 53 notein;
#X obj 68 270 f;
#X obj 68 231 t b f;
#X msg 120 428 1, f 5;
#X floatatom 125 557 5 0 0 0 - - - 12;
#X obj 183 371 moses 100;
#X obj 183 335 spigot;
#X floatatom 233 300 5 0 0 0 - - - 12;
#X obj 183 270 f;
#X obj 183 231 t b f;
#X msg 235 428 2, f 5;
#X obj 233 271 == 1;
#X obj 125 595 outlet;
#X obj 299 371 moses 100;
#X obj 299 335 spigot;
#X floatatom 349 300 5 0 0 0 - - - 12;
#X obj 299 270 f;
#X obj 299 231 t b f;
#X obj 349 271 == 2;
#X msg 351 428 3, f 5;
#X obj 417 371 moses 100;
#X obj 417 335 spigot;
#X floatatom 467 300 5 0 0 0 - - - 12;
#X obj 417 270 f;
#X obj 417 231 t b f;
#X obj 467 271 == 3;
#X obj 601 371 moses 100;
#X obj 601 335 spigot;
#X floatatom 651 300 5 0 0 0 - - - 12;
#X obj 601 270 f;
#X obj 601 231 t b f;
#X obj 716 371 moses 100;
#X obj 716 335 spigot;
#X floatatom 766 300 5 0 0 0 - - - 12;
#X obj 716 270 f;
#X obj 716 231 t b f;
#X obj 832 371 moses 100;
#X obj 832 335 spigot;
#X floatatom 882 300 5 0 0 0 - - - 12;
#X obj 832 270 f;
#X obj 832 231 t b f;
#X obj 950 371 moses 100;
#X obj 950 335 spigot;
#X floatatom 1000 300 5 0 0 0 - - - 12;
#X obj 950 270 f;
#X obj 950 231 t b f;
#X obj 651 271 == 4;
#X obj 766 271 == 5;
#X obj 882 271 == 6;
#X obj 1000 271 == 7;
#X msg 469 428 4, f 5;
#X msg 653 428 5, f 5;
#X msg 768 428 6, f 5;
#X msg 884 428 7, f 5;
#X msg 1002 428 8, f 5;
#X obj 663 1011 noteout;
#X text 641 955 note;
#X text 682 954 velocity;
#X floatatom 686 980 4 0 127 0 - - - 0;
#X floatatom 648 980 4 0 127 0 - - - 0;
#X obj 611 722 t b b;
#X msg 611 778 0, f 5;
#X msg 656 778 100, f 6;
#X obj 270 759 f;
#X obj 265 700 t f b;
#X obj 470 606 f;
#X obj 265 650 - 1;
#X obj 656 722 bng 25 250 50 0 empty empty empty 17 7 0 10 #191919 #00f9de #ffffff;
#X obj 725 722 t b b;
#X msg 772 778 100, f 6;
#X obj 772 722 bng 25 250 50 0 empty empty empty 17 7 0 10 #191919 #00f9de #ffffff;
#X msg 725 778 1, f 5;
#X msg 1116 128 12, f 5;
#X obj 1116 178 ctlout 30;
#X obj 1116 79 loadbang;
#X obj 270 815 t b f b;
#X obj 611 658 select 1 2 3 4 5 6 7 8;
#X obj 841 722 t b b;
#X msg 888 778 100, f 6;
#X obj 888 722 bng 25 250 50 0 empty empty empty 17 7 0 10 #191919 #00f9de #ffffff;
#X obj 950 722 t b b;
#X msg 997 778 100, f 6;
#X obj 997 722 bng 25 250 50 0 empty empty empty 17 7 0 10 #191919 #00f9de #ffffff;
#X obj 1065 722 t b b;
#X msg 1110 778 100, f 6;
#X obj 1110 722 bng 25 250 50 0 empty empty empty 17 7 0 10 #191919 #00f9de #ffffff;
#X obj 1179 722 t b b;
#X msg 1226 778 100, f 6;
#X obj 1226 722 bng 25 250 50 0 empty empty empty 17 7 0 10 #191919 #00f9de #ffffff;
#X obj 1295 722 t b b;
#X msg 1342 778 100, f 6;
#X obj 1342 722 bng 25 250 50 0 empty empty empty 17 7 0 10 #191919 #00f9de #ffffff;
#X obj 1404 722 t b b;
#X msg 1451 778 100, f 6;
#X obj 1451 722 bng 25 250 50 0 empty empty empty 17 7 0 10 #191919 #00f9de #ffffff;
#X msg 841 778 2, f 5;
#X msg 950 778 3, f 5;
#X msg 1065 778 4, f 5;
#X msg 1179 778 5, f 5;
#X msg 1295 778 6, f 5;
#X msg 1404 778 7, f 5;
#X msg 284 903 2, f 5;
#X obj 61 747 loadbang;
#X obj 61 790 delay 4000;
#X msg 61 829 1, f 5;
#X obj 61 858 metro 666;
#X obj 61 887 f;
#X obj 106 887 + 1;
#X obj 61 916 + 1;
#X msg 146 968 0, f 5;
#X obj 61 966 moses 8;
#X connect 1 0 9 0;
#X connect 1 0 16 0;
#X connect 1 0 24 0;
#X connect 1 0 31 0;
#X connect 1 0 37 0;
#X connect 1 0 42 0;
#X connect 1 0 47 0;
#X connect 1 0 52 0;
#X connect 2 0 8 1;
#X connect 2 0 15 1;
#X connect 2 0 23 1;
#X connect 2 0 36 1;
#X connect 2 0 41 1;
#X connect 2 0 46 1;
#X connect 2 0 51 1;
#X connect 2 0 30 1;
#X connect 3 1 10 0;
#X connect 4 0 6 0;
#X connect 5 0 3 0;
#X connect 6 0 5 1;
#X connect 7 0 1 0;
#X connect 7 1 2 0;
#X connect 8 0 5 0;
#X connect 9 0 8 0;
#X connect 9 1 4 0;
#X connect 10 0 11 0;
#X connect 11 0 19 0;
#X connect 11 0 72 1;
#X connect 11 0 73 0;
#X connect 12 1 17 0;
#X connect 13 0 12 0;
#X connect 14 0 13 1;
#X connect 15 0 13 0;
#X connect 16 0 15 0;
#X connect 16 1 18 0;
#X connect 17 0 11 0;
#X connect 18 0 14 0;
#X connect 20 1 26 0;
#X connect 21 0 20 0;
#X connect 22 0 21 1;
#X connect 23 0 21 0;
#X connect 24 0 23 0;
#X connect 24 1 25 0;
#X connect 25 0 22 0;
#X connect 26 0 11 0;
#X connect 27 1 57 0;
#X connect 28 0 27 0;
#X connect 29 0 28 1;
#X connect 30 0 28 0;
#X connect 31 0 30 0;
#X connect 31 1 32 0;
#X connect 32 0 29 0;
#X connect 33 1 58 0;
#X connect 34 0 33 0;
#X connect 35 0 34 1;
#X connect 36 0 34 0;
#X connect 37 0 36 0;
#X connect 37 1 53 0;
#X connect 38 1 59 0;
#X connect 39 0 38 0;
#X connect 40 0 39 1;
#X connect 41 0 39 0;
#X connect 42 0 41 0;
#X connect 42 1 54 0;
#X connect 43 1 60 0;
#X connect 44 0 43 0;
#X connect 45 0 44 1;
#X connect 46 0 44 0;
#X connect 47 0 46 0;
#X connect 47 1 55 0;
#X connect 48 1 61 0;
#X connect 49 0 48 0;
#X connect 50 0 49 1;
#X connect 51 0 49 0;
#X connect 52 0 51 0;
#X connect 52 1 56 0;
#X connect 53 0 35 0;
#X connect 54 0 40 0;
#X connect 55 0 45 0;
#X connect 56 0 50 0;
#X connect 57 0 11 0;
#X connect 58 0 11 0;
#X connect 59 0 11 0;
#X connect 60 0 11 0;
#X connect 61 0 11 0;
#X connect 65 0 62 1;
#X connect 66 0 62 0;
#X connect 67 0 68 0;
#X connect 67 1 69 0;
#X connect 68 0 66 0;
#X connect 69 0 65 0;
#X connect 70 0 82 0;
#X connect 71 0 70 1;
#X connect 71 1 70 0;
#X connect 72 0 83 0;
#X connect 73 0 71 0;
#X connect 75 0 78 0;
#X connect 75 1 76 0;
#X connect 76 0 65 0;
#X connect 78 0 66 0;
#X connect 79 0 80 0;
#X connect 81 0 79 0;
#X connect 82 0 72 0;
#X connect 82 1 66 0;
#X connect 82 2 108 0;
#X connect 83 0 67 0;
#X connect 83 0 74 0;
#X connect 83 1 75 0;
#X connect 83 1 77 0;
#X connect 83 2 84 0;
#X connect 83 2 86 0;
#X connect 83 3 87 0;
#X connect 83 3 89 0;
#X connect 83 4 90 0;
#X connect 83 4 92 0;
#X connect 83 5 93 0;
#X connect 83 5 95 0;
#X connect 83 6 96 0;
#X connect 83 6 98 0;
#X connect 83 7 99 0;
#X connect 83 7 101 0;
#X connect 84 0 102 0;
#X connect 84 1 85 0;
#X connect 85 0 65 0;
#X connect 87 0 103 0;
#X connect 87 1 88 0;
#X connect 88 0 65 0;
#X connect 90 0 104 0;
#X connect 90 1 91 0;
#X connect 91 0 65 0;
#X connect 93 0 105 0;
#X connect 93 1 94 0;
#X connect 94 0 65 0;
#X connect 96 0 106 0;
#X connect 96 1 97 0;
#X connect 97 0 65 0;
#X connect 99 0 107 0;
#X connect 99 1 100 0;
#X connect 100 0 65 0;
#X connect 102 0 66 0;
#X connect 103 0 66 0;
#X connect 104 0 66 0;
#X connect 105 0 66 0;
#X connect 106 0 66 0;
#X connect 107 0 66 0;
#X connect 108 0 65 0;
#X connect 109 0 110 0;
#X connect 110 0 111 0;
#X connect 111 0 112 0;
#X connect 112 0 113 0;
#X connect 113 0 114 0;
#X connect 113 0 115 0;
#X connect 114 0 113 1;
#X connect 115 0 11 0;
#X connect 115 0 117 0;
#X connect 116 0 113 0;
#X connect 116 0 112 0;
#X connect 117 1 116 0;
#X restore 417 1023 pd midiIn_0001;
#X obj 46 632 clone grao_samples_v2 15;
#X connect 0 0 3 0;
#X connect 1 0 126 1;
#X connect 3 0 4 0;
#X connect 5 0 7 1;
#X connect 6 0 7 0;
#X connect 7 0 8 0;
#X connect 8 0 10 0;
#X connect 9 0 10 0;
#X connect 9 1 10 1;
#X connect 10 0 11 0;
#X connect 11 0 12 0;
#X connect 11 0 97 0;
#X connect 12 0 14 0;
#X connect 13 0 12 1;
#X connect 14 0 103 0;
#X connect 15 0 14 0;
#X connect 15 0 54 0;
#X connect 16 0 15 0;
#X connect 17 0 23 0;
#X connect 17 0 24 0;
#X connect 18 0 5 0;
#X connect 18 0 124 0;
#X connect 19 0 5 0;
#X connect 20 0 24 2;
#X connect 21 0 20 0;
#X connect 22 0 20 0;
#X connect 23 0 20 0;
#X connect 24 0 25 0;
#X connect 25 0 215 0;
#X connect 26 0 9 0;
#X connect 27 0 15 1;
#X connect 28 0 24 1;
#X connect 29 0 24 3;
#X connect 30 0 24 4;
#X connect 31 0 128 0;
#X connect 31 0 32 0;
#X connect 31 0 33 0;
#X connect 31 0 100 0;
#X connect 32 0 91 0;
#X connect 33 0 62 0;
#X connect 33 0 75 0;
#X connect 33 0 127 0;
#X connect 37 0 38 0;
#X connect 39 0 40 0;
#X connect 41 0 42 0;
#X connect 43 0 44 0;
#X connect 45 0 46 0;
#X connect 47 0 48 0;
#X connect 49 0 131 0;
#X connect 50 0 132 0;
#X connect 51 0 52 0;
#X connect 53 0 96 0;
#X connect 55 0 56 0;
#X connect 58 0 59 0;
#X connect 60 0 61 0;
#X connect 63 0 64 0;
#X connect 65 0 66 0;
#X connect 68 0 69 0;
#X connect 70 0 71 0;
#X connect 72 0 73 0;
#X connect 76 0 77 0;
#X connect 78 0 79 0;
#X connect 81 0 82 0;
#X connect 84 0 85 0;
#X connect 86 0 87 0;
#X connect 89 0 90 0;
#X connect 93 0 94 0;
#X connect 95 0 50 1;
#X connect 95 0 49 1;
#X connect 96 0 95 0;
#X connect 97 0 98 0;
#X connect 98 0 105 0;
#X connect 99 0 97 0;
#X connect 101 0 99 0;
#X connect 103 0 17 0;
#X connect 104 0 103 1;
#X connect 104 0 111 0;
#X connect 105 0 114 0;
#X connect 106 0 105 1;
#X connect 107 0 108 0;
#X connect 111 0 112 0;
#X connect 112 0 110 0;
#X connect 112 0 121 0;
#X connect 113 0 17 0;
#X connect 116 0 117 0;
#X connect 118 0 119 0;
#X connect 123 0 0 0;
#X connect 124 0 125 0;
#X connect 125 0 126 0;
#X connect 125 1 1 0;
#X connect 126 0 123 0;
#X connect 128 0 83 0;
#X connect 128 0 129 0;
#X connect 131 0 34 0;
#X connect 132 0 35 0;
#X connect 133 0 190 0;
#X connect 134 0 137 0;
#X connect 134 0 138 0;
#X connect 136 0 157 0;
#X connect 137 0 135 0;
#X connect 139 0 143 0;
#X connect 140 0 144 0;
#X connect 140 0 145 0;
#X connect 141 0 144 0;
#X connect 142 0 143 0;
#X connect 142 0 145 0;
#X connect 143 0 102 0;
#X connect 143 0 160 0;
#X connect 144 0 109 0;
#X connect 144 0 161 0;
#X connect 144 0 197 1;
#X connect 145 0 120 0;
#X connect 145 0 162 0;
#X connect 145 0 198 1;
#X connect 146 0 145 0;
#X connect 147 0 143 0;
#X connect 147 0 144 0;
#X connect 148 0 151 0;
#X connect 149 0 153 0;
#X connect 150 0 155 0;
#X connect 151 0 152 0;
#X connect 152 0 139 0;
#X connect 152 0 140 0;
#X connect 153 0 154 0;
#X connect 154 0 141 0;
#X connect 154 0 142 0;
#X connect 155 0 156 0;
#X connect 156 0 146 0;
#X connect 156 0 147 0;
#X connect 157 0 158 0;
#X connect 158 0 159 0;
#X connect 159 0 143 0;
#X connect 159 0 144 0;
#X connect 159 0 145 0;
#X connect 163 0 164 0;
#X connect 164 0 165 0;
#X connect 165 0 197 0;
#X connect 165 0 198 0;
#X connect 166 0 167 0;
#X connect 167 0 168 0;
#X connect 168 0 164 0;
#X connect 168 0 170 0;
#X connect 168 0 184 0;
#X connect 168 0 178 0;
#X connect 168 0 182 0;
#X connect 168 0 173 0;
#X connect 168 0 200 0;
#X connect 168 0 205 0;
#X connect 169 0 170 0;
#X connect 170 0 213 0;
#X connect 171 0 189 0;
#X connect 172 0 173 0;
#X connect 173 0 176 0;
#X connect 174 0 192 0;
#X connect 175 0 195 0;
#X connect 176 0 175 0;
#X connect 177 0 178 0;
#X connect 178 0 180 0;
#X connect 179 0 196 0;
#X connect 180 0 179 0;
#X connect 181 0 182 0;
#X connect 182 0 209 0;
#X connect 183 0 184 0;
#X connect 184 0 210 0;
#X connect 185 0 193 0;
#X connect 186 0 194 0;
#X connect 187 0 191 0;
#X connect 189 0 169 0;
#X connect 190 0 163 0;
#X connect 191 0 177 0;
#X connect 192 0 172 0;
#X connect 193 0 181 0;
#X connect 194 0 183 0;
#X connect 195 0 43 0;
#X connect 196 0 41 0;
#X connect 197 0 93 0;
#X connect 198 0 116 0;
#X connect 199 0 200 0;
#X connect 200 0 201 0;
#X connect 201 0 118 0;
#X connect 202 0 199 0;
#X connect 203 0 202 0;
#X connect 204 0 205 0;
#X connect 205 0 207 0;
#X connect 206 0 204 0;
#X connect 207 0 107 0;
#X connect 208 0 206 0;
#X connect 209 0 211 0;
#X connect 210 0 212 0;
#X connect 211 0 37 0;
#X connect 212 0 39 0;
#X connect 213 0 51 0;
#X connect 214 0 122 0;
#X connect 215 0 49 0;
#X connect 215 0 50 0;
#X coords 0 -1 1 1 570 439 2 380 300;
