#N canvas 827 239 527 327 12;
#N canvas 0 22 450 278 (subpatch) 0;
#X text 0 0 plugdatainfo <?xml version="1.0" encoding="UTF-8"?> <plugdatainfo/>;
#X coords 0 1 100 -1 1 1 1;
#X restore 0 0 graph;
#X obj 736 184 \$0;
#X floatatom 736 213 5 0 0 0 - - - 12;
#X obj 736 240 f \$0;
#X obj 782 240 array define \$0-grainArray;
#X obj 736 300 soundfiler;
#X msg 736 270 read -resize au01.wav \$1-grainArray, f 33;
#X floatatom 736 330 26 0 0 0 - - - 12;
#X obj 503 592 vsl 17 128 0 1 0 0 empty empty empty 0 -9 0 10 #191919 #00f9de #ffffff 0 1;
#X obj 248 757 *~;
#X obj 248 809 clip~ -1 1;
#X obj 48 522 belaInit;
#X obj 736 146 loadbang;
#X obj 48 551 b;
#X obj 139 547 bng 25 250 50 0 empty empty empty 17 7 0 10 #191919 #00f9de #ffffff;
#X obj 826 143 bng 25 250 50 0 empty empty empty 17 7 0 10 #191919 #00f9de #ffffff;
#X obj 736 374 s \$0-sfSize;
#X obj 48 588 random 100;
#X obj 48 617 / 100;
#X floatatom 48 646 5 0 0 0 - - - 12;
#X obj 540 381 r \$0-sfSize;
#X floatatom 540 343 5 0 0 0 grain\ dur - - 12;
#X obj 248 626 pack f f f f;
#X msg 248 662 next \$1 \$2 \$3 \$4, f 17;
#X obj 211 372 snapshot~;
#X floatatom 211 418 5 0 0 0 - - - 12;
#X obj 345 343 tgl 25 0 empty empty empty 17 7 0 10 #191919 #00f9de #ffffff 0 1;
#X msg 503 192 100, f 6;
#X obj 345 378 metro 100;
#X obj 211 333 phasor~ -0.01;
#X obj 437 176 vsl 17 128 1 1000 0 0 empty empty empty 0 -9 0 10 #191919 #00f9de #ffffff 0 1;
#X obj 432 314 i;
#X floatatom 432 343 5 0 0 0 densidade - - 12;
#X obj 189 169 vsl 17 128 -3 3 0 0 empty empty empty 0 -9 0 10 #191919 #00f9de #ffffff 0 1;
#X msg 686 184 1, f 5;
#X obj 614 221 vsl 17 128 1 3000 0 0 empty empty empty 0 -9 0 10 #191919 #00f9de #ffffff 0 1;
#X obj 614 357 i;
#X msg 228 276 0, f 5;
#X obj 529 576 adc~ 10;
#X obj 464 23 adc~ 3;
#X obj 464 123 snapshot~;
#X obj 550 123 metro 10;
#X floatatom 464 152 5 0 0 0 - - - 12;
#X obj 503 152 * 3000;
#X obj 48 95 snapshot~;
#X obj 134 95 metro 10;
#X floatatom 48 124 5 0 0 0 - - - 12;
#X obj 48 4 adc~ 5;
#X obj 28 357 snapshot~;
#X obj 114 357 metro 10;
#X floatatom 28 386 5 0 0 0 - - - 12;
#X obj 67 386 * 3000;
#X obj 28 230 adc~ 4;
#X obj 529 698 *~ 20;
#X obj 248 695 clone grao_v001 20;
#X obj 87 124 * 6;
#X obj 48 169 - 3;
#X obj 242 859 dac~ 1 2 27;
#X obj 28 259 *~ 3;
#X obj 529 605 *~ 3;
#X obj 464 52 *~ 3;
#X obj 48 33 *~ 3;
#X connect 1 0 2 0;
#X connect 2 0 3 0;
#X connect 3 0 6 0;
#X connect 3 0 22 3;
#X connect 5 0 7 0;
#X connect 6 0 5 0;
#X connect 7 0 16 0;
#X connect 9 0 10 0;
#X connect 10 0 57 0;
#X connect 10 0 57 1;
#X connect 10 0 57 2;
#X connect 11 0 13 0;
#X connect 12 0 1 0;
#X connect 12 0 27 0;
#X connect 12 0 34 0;
#X connect 13 0 17 0;
#X connect 13 0 37 0;
#X connect 14 0 17 0;
#X connect 15 0 1 0;
#X connect 17 0 18 0;
#X connect 18 0 19 0;
#X connect 20 0 22 2;
#X connect 21 0 22 1;
#X connect 22 0 23 0;
#X connect 23 0 54 0;
#X connect 24 0 25 0;
#X connect 25 0 22 0;
#X connect 26 0 28 0;
#X connect 27 0 35 0;
#X connect 28 0 24 0;
#X connect 29 0 24 0;
#X connect 30 0 31 0;
#X connect 31 0 32 0;
#X connect 32 0 28 1;
#X connect 33 0 29 0;
#X connect 34 0 26 0;
#X connect 34 0 41 0;
#X connect 35 0 36 0;
#X connect 36 0 21 0;
#X connect 37 0 29 1;
#X connect 38 0 59 0;
#X connect 39 0 60 0;
#X connect 40 0 42 0;
#X connect 41 0 40 0;
#X connect 41 0 45 0;
#X connect 41 0 49 0;
#X connect 42 0 43 0;
#X connect 43 0 35 0;
#X connect 44 0 46 0;
#X connect 45 0 44 0;
#X connect 46 0 55 0;
#X connect 47 0 61 0;
#X connect 48 0 50 0;
#X connect 49 0 48 0;
#X connect 50 0 51 0;
#X connect 51 0 30 0;
#X connect 52 0 58 0;
#X connect 53 0 9 1;
#X connect 54 0 9 0;
#X connect 55 0 56 0;
#X connect 56 0 33 0;
#X connect 58 0 48 0;
#X connect 59 0 53 0;
#X connect 60 0 40 0;
#X connect 61 0 44 0;
