#N canvas 827 239 527 327 12;
#N canvas 0 22 450 278 (subpatch) 0;
#X text 0 0 plugdatainfo <?xml version="1.0" encoding="UTF-8"?> <plugdatainfo/>;
#X coords 0 1 100 -1 1 1 1;
#X restore 0 0 graph;
#X obj 333 193 \$0;
#X obj 453 77 bng 25 250 50 0 empty empty empty 17 7 0 10 #191919 #00f9de #ffffff;
#X floatatom 333 222 5 0 0 0 - - - 12;
#X obj 333 249 f \$0;
#X obj 546 199 array define \$0-grainArray;
#X obj 333 309 soundfiler;
#X msg 333 279 read -resize au01.wav \$1-grainArray, f 33;
#X floatatom 333 339 26 0 0 0 - - - 12;
#X obj 149 538 vline~;
#X obj 179 632 tabread4~ \$0-grainArray;
#X obj 446 602 vsl 17 128 0 1 0 0 empty empty empty 0 -9 0 10 #191919 #00f9de #ffffff 0 1;
#X obj 217 719 *~;
#X obj 211 821 dac~ 1 2;
#X obj 217 771 clip~ -1 1;
#X msg 161 462 0 \, 54656 1500, f 15;
#X obj 123 52 belaInit;
#X obj 494 544 adc~ 3;
#X obj 453 110 t b b;
#X connect 1 0 3 0;
#X connect 2 0 18 0;
#X connect 3 0 4 0;
#X connect 4 0 7 0;
#X connect 6 0 8 0;
#X connect 7 0 6 0;
#X connect 9 0 10 0;
#X connect 10 0 12 0;
#X connect 11 0 12 1;
#X connect 12 0 14 0;
#X connect 14 0 13 0;
#X connect 14 0 13 1;
#X connect 15 0 9 0;
#X connect 16 0 2 0;
#X connect 17 0 12 1;
#X connect 18 0 15 0;
#X connect 18 1 1 0;
