#N canvas 0 22 450 300 12;
#N canvas 0 22 450 278 (subpatch) 0;
#X text 0 0 plugdatainfo <?xml version="1.0" encoding="UTF-8"?> <plugdatainfo/>;
#X coords 0 1 100 -1 1 1 1;
#X restore 0 0 graph;
#X obj 220 149 s bela_setDigital;
#X msg 220 108 in 26 \, in 25 \, in 24 \, in 23 \, out 17 \, out 18 \, out 21 \, out 13 \, out 14 \, out 11 \, out 12 \, out 15 \, out 16 \, out 19, f 82;
#X obj 215 52 loadbang;
#X obj 219 187 r bela_digitalIn26;
#X obj 346 187 r bela_digitalIn25;
#X obj 477 187 r bela_digitalIn24;
#X obj 604 187 r bela_digitalIn23;
#X msg 323 42 \; pd dsp 1, f 10;
#X obj 260 293 outlet;
#X connect 2 0 1 0;
#X connect 3 0 2 0;
#X connect 3 0 8 0;
#X connect 4 0 9 0;
