#N canvas 827 239 527 327 12;
#N canvas 0 22 450 278 (subpatch) 0;
#X text 0 0 plugdatainfo <?xml version="1.0" encoding="UTF-8"?> <plugdatainfo/>;
#X coords 0 1 100 -1 1 1 1;
#X restore 0 0 graph;
#X floatatom 554 255 6 0 0 0 duration - - 12;
#X obj 521 395 +;
#X obj 419 511 vline~;
#X floatatom 419 235 5 0 0 0 start - - 12;
#X obj 419 330 *, f 6;
#X obj 623 240 samplerate~;
#X obj 623 330 *;
#X msg 419 466 \$1 \, \$2 \$3, f 11;
#X obj 419 425 pack f f f;
#X obj 419 359 t f f b;
#X obj 532 352 f;
#X obj 623 270 / 1000;
#X obj 132 62 inlet;
#X obj 115 635 outlet~;
#X obj 554 291 f;
#X obj 419 556 tabread4~;
#X msg 282 511 set \$1-grainArray;
#X obj 132 91 unpack f f f f;
#X obj 289 612 *~;
#X obj 622 557 vline~;
#X obj 737 380 - 20;
#X msg 622 518 0 \, 1 20, f 8;
#X obj 419 175 t b f b b;
#X obj 726 466 delay;
#X obj 726 429 f;
#X msg 726 511 1 \, 0 20, f 8;
#X connect 1 0 15 1;
#X connect 1 0 21 0;
#X connect 2 0 9 1;
#X connect 3 0 16 0;
#X connect 4 0 5 0;
#X connect 5 0 10 0;
#X connect 6 0 12 0;
#X connect 7 0 11 1;
#X connect 8 0 3 0;
#X connect 9 0 8 0;
#X connect 10 0 9 0;
#X connect 10 1 2 0;
#X connect 10 2 11 0;
#X connect 11 0 2 1;
#X connect 12 0 7 0;
#X connect 13 0 18 0;
#X connect 15 0 9 2;
#X connect 15 0 7 1;
#X connect 16 0 19 0;
#X connect 17 0 16 0;
#X connect 18 0 23 0;
#X connect 18 1 1 0;
#X connect 18 2 5 1;
#X connect 18 3 17 0;
#X connect 19 0 14 0;
#X connect 20 0 19 1;
#X connect 21 0 25 1;
#X connect 22 0 20 0;
#X connect 23 0 22 0;
#X connect 23 0 25 0;
#X connect 23 1 4 0;
#X connect 23 2 6 0;
#X connect 23 3 15 0;
#X connect 24 0 26 0;
#X connect 25 0 24 0;
#X connect 26 0 20 0;
