#N canvas 827 239 527 327 12;
#N canvas 0 22 450 278 (subpatch) 0;
#X text 0 0 plugdatainfo <?xml version="1.0" encoding="UTF-8"?> <plugdatainfo/>;
#X coords 0 1 100 -1 1 1 1;
#X restore 0 0 graph;
#X msg 80 82 \; pd dsp 1, f 10;
#X obj 80 41 loadbang;
#X obj 140 291 dac~ 1 2 27;
#X obj 82 172 adc~ 1 2 3 4 5 6 7 8 9 10;
#X connect 2 0 1 0;
#X connect 4 0 3 0;
#X connect 4 0 3 1;
#X connect 4 0 3 2;
#X connect 4 1 3 0;
#X connect 4 1 3 1;
#X connect 4 1 3 2;
#X connect 4 2 3 0;
#X connect 4 2 3 2;
#X connect 4 3 3 1;
#X connect 4 3 3 2;
#X connect 4 3 3 0;
#X connect 4 4 3 0;
#X connect 4 4 3 1;
#X connect 4 4 3 2;
#X connect 4 5 3 0;
#X connect 4 5 3 1;
#X connect 4 5 3 2;
#X connect 4 6 3 0;
#X connect 4 6 3 1;
#X connect 4 6 3 2;
#X connect 4 7 3 0;
#X connect 4 7 3 1;
#X connect 4 7 3 2;
#X connect 4 8 3 0;
#X connect 4 8 3 1;
#X connect 4 8 3 2;
#X connect 4 9 3 0;
#X connect 4 9 3 1;
#X connect 4 9 3 2;
