#N canvas 827 239 527 327 12;
#N canvas 0 22 450 278 (subpatch) 0;
#X text 0 0 plugdatainfo <?xml version="1.0" encoding="UTF-8"?> <plugdatainfo/>;
#X coords 0 1 100 -1 1 1 1;
#X restore 0 0 graph;
#X obj 47 271 adc~ 3;
#X obj 352 503 dac~ 1 2;
#X obj 352 455 *~ 0.5;
#X obj 406 455 *~ 0.5;
#X obj 335 354 clip~ -1 1;
#X obj 292 303 *~ 10;
#X connect 1 0 6 0;
#X connect 3 0 2 0;
#X connect 4 0 2 1;
#X connect 5 0 3 0;
#X connect 5 0 4 0;
#X connect 6 0 5 0;
