#N canvas 827 239 527 327 12;
#N canvas 0 22 450 278 (subpatch) 0;
#X text 0 0 plugdatainfo <?xml version="1.0" encoding="UTF-8"?> <plugdatainfo/>;
#X coords 0 1 100 -1 1 1 1;
#X restore 0 0 graph;
#X obj 54 193 adc~ 3;
#X obj 54 312 clip~ -1 1;
#X obj 54 407 dac~ 1 2 27;
#X msg 39 59 \; pd dsp 1, f 10;
#X obj 39 18 loadbang;
#X obj 54 272 *~;
#X obj 126 222 *~ 1000;
#X obj 228 312 clip~ -1 1;
#X obj 300 198 adc~ 10;
#X obj 228 272 *~;
#X obj 300 227 *~ 1000;
#X obj 126 193 adc~ 9;
#X obj 228 198 adc~ 1;
#X obj 228 348 hip~ 100;
#X obj 54 348 hip~ 100;
#X connect 1 0 6 0;
#X connect 2 0 15 0;
#X connect 5 0 4 0;
#X connect 6 0 2 0;
#X connect 7 0 6 1;
#X connect 8 0 14 0;
#X connect 9 0 11 0;
#X connect 10 0 8 0;
#X connect 11 0 10 1;
#X connect 12 0 7 0;
#X connect 13 0 10 0;
#X connect 14 0 3 0;
#X connect 14 0 3 1;
#X connect 14 0 3 2;
#X connect 15 0 3 0;
#X connect 15 0 3 1;
#X connect 15 0 3 2;
